Coordinates
version=1
nRows=30
nColumns=23
inDegrees=yes

Units are S.I. units (second, meters, Newtons, ...)
If the header above contains a line with 'inDegrees', this indicates whether rotational values are in degrees (yes) or radians (no).

endheader
time	pelvis_tilt	pelvis_list	pelvis_rotation	pelvis_tx	pelvis_ty	pelvis_tz	hip_flexion_r	hip_adduction_r	hip_rotation_r	knee_angle_r	knee_angle_r_beta	ankle_angle_r	subtalar_angle_r	mtp_angle_r	hip_flexion_l	hip_adduction_l	hip_rotation_l	knee_angle_l	knee_angle_l_beta	ankle_angle_l	subtalar_angle_l	mtp_angle_l
     15.00000000	     -1.69329302	     -7.39350156	     -1.63400130	      2.18472580	      1.01980179	      1.00126034	     21.07541628	     11.07372522	     -4.07986043	     41.97282373	      0.73256397	     20.89977615	    -10.47897291	      0.00000000	      4.79161211	    -11.11099546	      3.25410583	     88.63799090	      1.54702478	     -4.47789422	    -18.64731579	      0.00000000
     15.00666667	     -2.58541005	     -6.96785844	     -1.49872287	      2.18327493	      1.01671165	      1.00104751	     21.47332990	     10.67389803	     -3.87104248	     42.83399066	      0.74759417	     22.18049581	    -10.43145657	      0.00000000	      7.36956377	    -10.48282198	      4.09406838	     90.40069904	      1.57778984	     -3.95002026	    -18.34729940	      0.00000000
     15.01333333	     -2.50818893	     -6.94164349	     -1.22527500	      2.18253299	      1.01588973	      1.00068561	     20.42268829	     10.71380480	     -3.63232949	     42.92001867	      0.74909564	     23.20247491	    -10.65345644	      0.00000000	      8.73810853	    -10.26210851	      4.88857842	     91.65859066	      1.59974419	     -3.62262782	    -18.25717229	      0.00000000
     15.02000000	     -2.85476944	     -6.81620219	     -0.78200795	      2.18187306	      1.01514798	      1.00003403	     19.74268508	     10.48532997	     -3.81332365	     42.82595175	      0.74745386	     23.95012177	    -10.44190980	      0.00000000	     10.66433467	     -9.89695922	      5.82028843	     92.77862127	      1.61929242	     -3.07242588	    -17.62993464	      0.00000000
     15.02666667	     -3.04824907	     -6.62050894	     -0.49180900	      2.18142091	      1.01528479	      0.99954136	     18.74907229	     10.25844652	     -3.76447846	     42.50637030	      0.74187611	     24.76060760	    -10.34271265	      0.00000000	     12.29409531	     -9.43833105	      6.49941982	     93.54802559	      1.63272106	     -2.64188186	    -17.23213192	      0.00000000
     15.03333333	     -3.21474318	     -6.29943063	     -0.42622103	      2.18111889	      1.01632034	      0.99934299	     17.56299211	     10.01187020	     -3.37885623	     41.88810893	      0.73108542	     25.14464403	    -10.14803641	      0.00000000	     13.75369794	     -8.92534074	      6.79761637	     93.93720078	      1.63951344	     -2.44918201	    -16.98631050	      0.00000000
     15.04000000	     -3.58235725	     -6.10982922	      0.21553988	      2.18112626	      1.01750459	      0.99821901	     16.51936471	      9.54792552	     -4.01241864	     41.07216330	      0.71684448	     25.53129543	     -9.61569066	      0.00000000	     15.59472342	     -8.33867432	      7.69990753	     94.26057204	      1.64515734	     -1.65451547	    -15.89951840	      0.00000000
     15.04666667	     -3.88651622	     -5.69027826	      0.23961702	      2.18111623	      1.01955470	      0.99797182	     15.31411507	      9.15040062	     -3.71159371	     40.13663873	      0.70051650	     25.71910928	     -9.31698218	      0.00000000	     17.08198011	     -7.72782706	      7.77103149	     94.12626205	      1.64281319	     -1.40786372	    -15.60867532	      0.00000000
     15.05333333	     -4.11938053	     -5.33843528	      0.92300381	      2.18164954	      1.02217189	      0.99672261	     13.90521129	      8.50108684	     -4.47102059	     38.90795645	      0.67907195	     25.51545622	     -8.63385250	      0.00000000	     18.58493140	     -6.93048645	      8.44679517	     93.83179990	      1.63767385	     -0.59300078	    -14.45182585	      0.00000000
     15.06000000	     -3.92933181	     -4.99356516	      1.42300173	      2.18250715	      1.02597282	      0.99568909	     11.91709445	      7.94104212	     -5.09718600	     37.45978099	      0.65379652	     25.38269876	     -7.42087286	      0.00000000	     19.42884941	     -6.26062865	      8.77619321	     93.14422812	      1.62567346	      0.00137490	    -13.68694588	      0.00000000
     15.06666667	     -4.29048663	     -4.41331372	      1.74196051	      2.18309318	      1.02943975	      0.99496514	     10.60837713	      7.23234743	     -5.38450742	     36.14683666	      0.63088131	     24.66073502	     -6.98787273	      0.00000000	     20.81151002	     -5.36511021	      8.83974561	     92.28317251	      1.61064520	      0.54035187	    -13.02850917	      0.00000000
     15.07333333	     -4.01866850	     -4.01727717	      2.33327326	      2.18439904	      1.03423255	      0.99386198	      8.44275149	      6.65000617	     -6.21777073	     34.47435985	      0.60169109	     23.88074539	     -6.02159627	      0.00000000	     21.38298015	     -4.65919826	      9.05711462	     91.08091336	      1.58966182	      1.21010762	    -12.26205585	      0.00000000
     15.08000000	     -4.30068608	     -3.38500978	      2.72617225	      2.18540077	      1.03855713	      0.99306414	      7.02147561	      5.86316603	     -6.82199908	     33.06708378	      0.57712949	     22.66106976	     -5.53766940	      0.00000000	     22.48846275	     -3.74085202	      8.97767930	     89.72426187	      1.56598379	      1.80015336	    -11.63500005	      0.00000000
     15.08666667	     -4.70152605	     -2.75251238	      2.92210827	      2.18639367	      1.04305623	      0.99256043	      5.79484029	      5.10831830	     -7.28943101	     31.73796875	      0.55393205	     21.17112062	     -4.93508270	      0.00000000	     23.60142053	     -2.92546465	      8.64056159	     88.13110022	      1.53817787	      2.31260357	    -11.14389627	      0.00000000
     15.09333333	     -4.02454428	     -2.30080299	      3.75751385	      2.18841081	      1.04913662	      0.99124009	      3.12604080	      4.52426785	     -8.70970072	     29.84950741	      0.52097218	     19.35904491	     -4.06587668	      0.00000000	     23.44806589	     -2.18017525	      8.83220788	     86.25302792	      1.50539933	      2.99261186	    -10.51561797	      0.00000000
     15.10000000	     -4.04676969	     -1.69463524	      4.16283431	      2.18986676	      1.05447302	      0.99044532	      1.47620664	      3.80228874	     -9.67291404	     28.41665073	      0.49596412	     17.23325163	     -3.54206097	      0.00000000	     23.96885473	     -1.41372142	      8.52374129	     84.23889047	      1.47024600	      3.51919641	    -10.04203492	      0.00000000
     15.10666667	     -3.80585918	     -1.20677266	      4.51660149	      2.19154545	      1.06025723	      0.98980922	     -0.47137273	      3.27606101	    -10.60725227	     26.86416360	      0.46886811	     14.80668993	     -2.89350128	      0.00000000	     24.10106901	     -0.89272656	      8.11604786	     82.01393215	      1.43141315	      4.01429951	     -9.66110222	      0.00000000
     15.11333333	     -3.75023253	     -0.72560382	      4.87132628	      2.19318679	      1.06581980	      0.98913020	     -2.11343813	      2.73259454	    -11.65623342	     25.47049511	      0.44454400	     12.15709618	     -2.29444663	      0.00000000	     24.37195279	     -0.37498996	      7.65872868	     79.65428283	      1.39022950	      4.48038805	     -9.31510538	      0.00000000
     15.12000000	     -3.70927265	     -0.29892041	      5.18181092	      2.19485782	      1.07132546	      0.98847407	     -3.66208867	      2.25142122	    -12.69802075	     24.15770789	      0.42163154	      9.30658048	     -1.71397981	      0.00000000	     24.58341120	      0.02943658	      7.10686839	     77.14744710	      1.34647696	      4.93273719	     -8.97664876	      0.00000000
     15.12666667	     -3.80512234	      0.08285593	      5.51965733	      2.19650948	      1.07654558	      0.98770786	     -4.96071868	      1.78644756	    -13.84182416	     23.00280691	      0.40147472	      6.33991066	     -1.12682808	      0.00000000	     24.88526764	      0.41729723	      6.55481271	     74.52577490	      1.30072015	      5.38565756	     -8.60604406	      0.00000000
     15.13333333	     -3.75273660	      0.32752109	      5.74186120	      2.19821486	      1.08184696	      0.98708617	     -6.35771648	      1.50274013	    -14.80547695	     21.85182219	      0.38138624	      3.25101822	     -0.47724713	      0.00000000	     24.94980680	      0.53839294	      5.84771277	     71.76168052	      1.25247760	      5.81303742	     -8.27706436	      0.00000000
     15.14000000	     -3.73907071	      0.49181006	      5.93779792	      2.19993529	      1.08690736	      0.98649645	     -7.62985979	      1.32245696	    -15.60522001	     20.78102019	      0.36269722	      0.12377718	      0.00310037	      0.00000000	     24.99340794	      0.54349765	      5.07306073	     68.88297950	      1.20223479	      6.19528936	     -7.82481460	      0.00000000
     15.14666667	     -4.36969370	      0.53993855	      5.98269239	      2.20130175	      1.09090830	      0.98592803	     -7.91033780	      1.05986581	    -16.39284078	     20.27438832	      0.35385483	     -2.65124682	      0.64720029	      0.00000000	     25.73069470	      0.44934065	      4.12822669	     65.98378325	      1.15163427	      6.60901135	     -7.55329569	      0.00000000
     15.15333333	     -4.00792721	      0.62160281	      6.34554911	      2.20310747	      1.09570526	      0.98502332	     -9.40622140	      0.96666894	    -17.49313730	     19.47330102	      0.33987322	     -5.74610033	      1.11310718	      0.00000000	     25.27517210	      0.45900470	      3.52389212	     62.90849035	      1.09796028	      7.01181150	     -6.74236475	      0.00000000
     15.16000000	     -4.07983046	      0.55614181	      6.51067809	      2.20469457	      1.09967579	      0.98424827	    -10.22353551	      0.92225502	    -18.24959714	     19.02818065	      0.33210440	     -8.41703988	      1.34459458	      0.00000000	     25.27702993	      0.24707237	      2.65129552	     59.79988499	      1.04370489	      7.41014690	     -6.00074245	      0.00000000
     15.16666667	     -4.50857635	      0.48327415	      6.68745122	      2.20602207	      1.10277258	      0.98336013	    -10.43490756	      0.75413652	    -19.09041116	     19.07846257	      0.33298199	    -10.70701744	      1.44571442	      0.00000000	     25.62326517	      0.20089925	      1.92916566	     56.62595131	      0.98830929	      7.68372291	     -5.32040535	      0.00000000
     15.17333333	     -4.55113511	      0.49104854	      6.92056145	      2.20749162	      1.10585348	      0.98238271	    -11.03646536	      0.53819555	    -20.03337411	     19.24681332	      0.33592026	    -12.58014202	      1.35732364	      0.00000000	     25.47164228	      0.17218241	      1.09413734	     53.35744457	      0.93126309	      8.12216982	     -4.11881450	      0.00000000
     15.18000000	     -4.88845993	      0.47993476	      7.17137358	      2.20867955	      1.10809866	      0.98124666	    -11.15318433	      0.24331632	    -20.96437265	     19.81376188	      0.34581538	    -14.05658951	      0.89924664	      0.00000000	     25.60779681	      0.31737593	      0.48571308	     50.04181965	      0.87339452	      8.44523447	     -3.12333946	      0.00000000
     15.18666667	     -5.15747696	      0.57253925	      7.44304891	      2.20977082	      1.10986366	      0.98002953	    -11.24598197	     -0.21724767	    -21.98453333	     20.70397613	      0.36135255	    -15.02100508	      0.16040738	      0.00000000	     25.59723633	      0.61693301	     -0.09359798	     46.64802164	      0.81416157	      8.80440789	     -1.87758572	      0.00000000
     15.19333333	     -5.44282432	      0.72018584	      7.71847726	      2.21072926	      1.11110451	      0.97871922	    -11.24056108	     -0.77877932	    -22.96130925	     21.85866119	      0.38150561	    -15.40706101	     -0.73619887	      0.00000000	     25.54373939	      1.05026599	     -0.56841987	     43.20005876	      0.75398326	      9.20494449	     -0.50397868	      0.00000000
